<?xml version="1.0" encoding="UTF-8" standalone="no"?>
<!-- Created with Inkscape (http://www.inkscape.org/) -->

<svg
   width="99.523979mm"
   height="89.507645mm"
   viewBox="0 0 99.523982 89.507645"
   version="1.1"
   id="svg5"
   xml:space="preserve"
   sodipodi:docname="roi-inkscape.svg"
   inkscape:version="1.2.2 (b0a8486541, 2022-12-01)"
   inkscape:export-filename="../Playground/Personal/foursquare-roi/public/roi.svg"
   inkscape:export-xdpi="66.94"
   inkscape:export-ydpi="66.94"
   xmlns:inkscape="http://www.inkscape.org/namespaces/inkscape"
   xmlns:sodipodi="http://sodipodi.sourceforge.net/DTD/sodipodi-0.dtd"
   xmlns="http://www.w3.org/2000/svg"
   xmlns:svg="http://www.w3.org/2000/svg"><sodipodi:namedview
     id="namedview7"
     pagecolor="#ffffff"
     bordercolor="#666666"
     borderopacity="1.0"
     inkscape:showpageshadow="2"
     inkscape:pageopacity="0.0"
     inkscape:pagecheckerboard="0"
     inkscape:deskcolor="#d1d1d1"
     inkscape:document-units="mm"
     showgrid="false"
     inkscape:zoom="0.40726421"
     inkscape:cx="171.87859"
     inkscape:cy="1114.7554"
     inkscape:window-width="1920"
     inkscape:window-height="995"
     inkscape:window-x="0"
     inkscape:window-y="0"
     inkscape:window-maximized="1"
     inkscape:current-layer="layer1"
     showguides="true" /><defs
     id="defs2" /><g
     inkscape:label="Layer 1"
     inkscape:groupmode="layer"
     id="layer1"
     transform="translate(-157.65604,-275.77889)"><path
       id="path3440"
       style="font-size:99.8505px;line-height:1.25;font-family:Rubik;-inkscape-font-specification:Rubik;letter-spacing:0px;word-spacing:0px;fill:#ffffff;fill-opacity:1;stroke:#000000;stroke-width:0.88907;stroke-dasharray:none"
       d="m 212.4262,276.22342 c -21.81118,0 -39.98106,15.84501 -43.62978,36.627 -0.16373,0.93129 -1.0292,1.69073 -1.97467,1.69073 h -7.7774 c -0.94565,0 -1.22683,0.59336 -0.62897,1.32549 l 12.89786,15.78037 c 0.5986,0.73213 1.5681,0.73213 2.16671,0 l 12.89739,-15.78037 c 0.59861,-0.73213 0.3165,-1.32549 -0.62897,-1.32549 h -6.84795 c -0.94546,0 -1.58829,-0.75735 -1.38521,-1.68063 3.23125,-14.71542 15.54996,-26.05878 30.75306,-27.82918 v 3.72008 c -5.85908,0.53264 -10.38655,2.36741 -13.58242,5.50409 -3.19586,3.0775 -4.79379,6.77651 -4.79379,11.09685 0,3.37341 0.68054,6.15504 2.04175,8.34481 1.42038,2.18975 3.55095,4.02451 6.39173,5.50408 2.84076,1.47957 6.42136,2.84067 10.7417,4.0835 4.14278,1.18365 7.51604,2.27843 10.12007,3.28453 2.60403,1.00611 4.52772,2.16033 5.77056,3.46235 1.30202,1.24283 1.95262,2.89974 1.95262,4.97113 0,3.01832 -1.21319,5.44471 -3.63968,7.27936 -2.3673,1.77549 -6.0958,2.66337 -11.18552,2.66337 -3.31423,0 -6.03642,-0.44371 -8.167,-1.33145 -2.07139,-0.94693 -3.66932,-2.10114 -4.79379,-3.46234 -1.12447,-1.42039 -1.86446,-2.84092 -2.21956,-4.2613 -0.11836,-0.47346 -0.35519,-0.88769 -0.71029,-1.24278 -0.3551,-0.3551 -0.85779,-0.53249 -1.5088,-0.53249 h -4.61645 c -0.53264,0 -1.00585,0.20734 -1.42013,0.62162 -0.35509,0.35509 -0.53294,0.76932 -0.53294,1.24278 0.11836,2.60404 0.94681,5.0599 2.48556,7.36803 1.53875,2.30812 3.78774,4.29079 6.74688,5.94791 2.95913,1.59793 6.59917,2.57429 10.9195,2.92938 v 4.05778 4.27968 4.27969 h 7.51092 c 22.69772,-1.89624 40.95629,-21.13011 40.95629,-44.30929 0,-24.43239 -19.8769,-44.30929 -44.30928,-44.30929 z m 3.29878,8.71328 c 18.17178,1.67064 32.45114,16.99584 32.45114,35.59601 0,18.49251 -14.37595,33.7502 -32.39693,35.56844 -0.0131,8.9e-4 -0.0402,0.003 -0.0542,0.004 v -3.79083 c 4.08361,-0.35511 7.60521,-1.27248 10.56435,-2.75205 3.01832,-1.47956 5.32629,-3.46223 6.92422,-5.9479 1.65711,-2.54486 2.48556,-5.4744 2.48556,-8.78862 0,-3.37342 -0.73952,-6.12556 -2.21909,-8.25614 -1.42038,-2.18975 -3.63988,-3.99503 -6.6582,-5.41542 -3.01831,-1.47956 -6.89472,-2.87015 -11.62933,-4.17217 -3.90606,-1.12447 -7.07243,-2.18975 -9.49892,-3.19586 -2.42649,-1.00611 -4.20181,-2.16032 -5.32628,-3.46233 -1.12448,-1.36121 -1.68661,-3.0476 -1.68661,-5.05982 0,-3.13668 1.18371,-5.44511 3.55101,-6.92467 2.42649,-1.47957 5.56292,-2.21909 9.40979,-2.21909 3.78769,0 6.86513,0.82845 9.23243,2.48556 2.36731,1.65712 3.72887,3.69876 4.08397,6.12525 0.23673,0.65101 0.56202,1.09519 0.9763,1.33191 0.47346,0.23674 0.91718,0.35515 1.33146,0.35515 h 4.70512 c 0.65102,0 1.12468,-0.17785 1.42059,-0.53294 0.29591,-0.41428 0.44382,-0.82851 0.44382,-1.24279 -0.0592,-2.13057 -0.76969,-4.32012 -2.13089,-6.56907 -1.36119,-2.24894 -3.37335,-4.23161 -6.03657,-5.94791 -2.66322,-1.71629 -5.9775,-2.81153 -9.94273,-3.28499 z"
       sodipodi:nodetypes="scssccccssccccscscscscsccssssscsccccccsscssccccscccscscssccssccsscc" /></g></svg>
