<?xml version="1.0" encoding="UTF-8" standalone="no"?>
<!-- Created with Inkscape (http://www.inkscape.org/) -->

<svg
   width="119.51424mm"
   height="116.39445mm"
   viewBox="0 0 119.51424 116.39445"
   version="1.1"
   id="svg5"
   xmlns="http://www.w3.org/2000/svg"
   xmlns:svg="http://www.w3.org/2000/svg">
  <defs
     id="defs2" />
  <g
     id="layer1"
     transform="translate(-44.773473,-68.138784)">
    <text
       xml:space="preserve"
       style="font-style:normal;font-variant:normal;font-weight:normal;font-stretch:normal;font-size:49.3637px;font-family:Arial;-inkscape-font-specification:Arial;fill:#000000;fill-opacity:1;stroke:none;stroke-width:4.85863;stroke-linejoin:round;stroke-dasharray:none;stroke-opacity:1"
       x="91.08091"
       y="143.08786"
       id="text1171"><tspan
         id="tspan1169"
         style="font-style:normal;font-variant:normal;font-weight:normal;font-stretch:normal;font-size:49.3637px;font-family:Arial;-inkscape-font-specification:Arial;fill:#000000;fill-opacity:1;stroke:none;stroke-width:4.85863"
         x="91.08091"
         y="143.08786">$</tspan></text>
    <circle
       style="fill:none;fill-opacity:1;stroke:#000000;stroke-width:2.983;stroke-linejoin:round;stroke-dasharray:none;stroke-opacity:1"
       id="path2054"
       cx="104.53059"
       cy="126.33601"
       r="35.264023" />
    <path
       id="path2056"
       style="color:#000000;fill:#000000;stroke-linejoin:round;-inkscape-stroke:none"
       d="m 104.17208,68.138784 c -25.804723,0 -47.701471,16.826056 -55.319099,40.096256 h 3.138826 c 7.487785,-21.610932 28.010099,-37.114009 52.180273,-37.114009 24.17017,0 44.69198,15.503077 52.17977,37.114009 h 3.13934 C 151.87358,84.964807 129.97682,68.138784 104.17208,68.138784 Z M 48.852981,144.43645 c 7.617571,23.2703 29.514305,40.09678 55.319099,40.09678 25.80481,0 47.70156,-16.82644 55.31911,-40.09678 h -3.13934 c -7.48775,21.61101 -28.00954,37.11453 -52.17977,37.11453 -24.170226,0 -44.692528,-15.50352 -52.180273,-37.11453 z" />
    <g
       id="g2072"
       transform="rotate(-15.281994,-38.863951,120.00287)">
      <rect
         style="fill:#000000;fill-opacity:1;stroke:none;stroke-width:1.78171;stroke-linejoin:round;stroke-dasharray:none;stroke-opacity:1"
         id="rect2066"
         width="2.983"
         height="18.377838"
         x="48.852982"
         y="114.88435"
         ry="1.6580167" />
      <rect
         style="fill:#000000;fill-opacity:1;stroke:none;stroke-width:1.78171;stroke-linejoin:round;stroke-dasharray:none;stroke-opacity:1"
         id="rect2068"
         width="2.983"
         height="18.377838"
         x="130.27919"
         y="-67.23082"
         ry="1.6580167"
         transform="rotate(90)" />
    </g>
    <g
       id="g2078"
       transform="rotate(164.71801,103.81255,144.59251)">
      <rect
         style="fill:#000000;fill-opacity:1;stroke:none;stroke-width:1.78171;stroke-linejoin:round;stroke-dasharray:none;stroke-opacity:1"
         id="rect2074"
         width="2.983"
         height="18.377838"
         x="48.852982"
         y="114.88435"
         ry="1.6580167" />
      <rect
         style="fill:#000000;fill-opacity:1;stroke:none;stroke-width:1.78171;stroke-linejoin:round;stroke-dasharray:none;stroke-opacity:1"
         id="rect2076"
         width="2.983"
         height="18.377838"
         x="130.27919"
         y="-67.23082"
         ry="1.6580167"
         transform="rotate(90)" />
    </g>
  </g>
</svg>
