<?xml version="1.0" encoding="UTF-8" standalone="no"?>
<!-- Created with Inkscape (http://www.inkscape.org/) -->

<svg
   width="118.209mm"
   height="118.209mm"
   viewBox="0 0 118.209 118.209"
   version="1.1"
   id="svg5"
   inkscape:version="1.2.2 (732a01da63, 2022-12-09)"
   sodipodi:docname="income-icon.svg"
   xmlns:inkscape="http://www.inkscape.org/namespaces/inkscape"
   xmlns:sodipodi="http://sodipodi.sourceforge.net/DTD/sodipodi-0.dtd"
   xmlns="http://www.w3.org/2000/svg"
   xmlns:svg="http://www.w3.org/2000/svg">
  <sodipodi:namedview
     id="namedview7"
     pagecolor="#ffffff"
     bordercolor="#000000"
     borderopacity="0.25"
     inkscape:showpageshadow="2"
     inkscape:pageopacity="0.0"
     inkscape:pagecheckerboard="0"
     inkscape:deskcolor="#d1d1d1"
     inkscape:document-units="mm"
     showgrid="false"
     inkscape:zoom="0.71624579"
     inkscape:cx="24.432953"
     inkscape:cy="206.63298"
     inkscape:window-width="1920"
     inkscape:window-height="1009"
     inkscape:window-x="-8"
     inkscape:window-y="-8"
     inkscape:window-maximized="1"
     inkscape:current-layer="layer1" />
  <defs
     id="defs2" />
  <g
     inkscape:label="Layer 1"
     inkscape:groupmode="layer"
     id="layer1"
     transform="translate(-45.067165,-67.231346)">
    <path
       id="path1115"
       style="color:#000000;fill:#000000;stroke-linejoin:round;-inkscape-stroke:none"
       d="M 104.17208 67.230313 C 71.55804 67.230313 45.066648 93.721709 45.066648 126.33575 C 45.066648 158.94979 71.55804 185.43963 104.17208 185.43963 C 136.78612 185.43963 163.27545 158.94979 163.27545 126.33575 C 163.27545 122.5366 162.91158 118.82248 162.22487 115.2217 A 37.494308 37.494308 0 0 1 157.65926 116.88413 C 158.19662 119.95339 158.47833 123.11114 158.47833 126.33575 C 158.47833 156.35725 134.19358 180.64251 104.17208 180.64251 C 74.150575 180.64251 49.863255 151.93658 49.863255 126.33575 C 49.863255 100.73491 74.150575 72.029503 104.17208 72.029503 C 106.37809 72.029503 108.55178 72.16425 110.68848 72.419143 A 37.494308 37.494308 0 0 1 112.10648 67.763613 C 109.51059 67.414424 106.86279 67.230313 104.17208 67.230313 z " />
    <text
       xml:space="preserve"
       style="font-style:normal;font-variant:normal;font-weight:normal;font-stretch:normal;font-size:79.3981px;font-family:Arial;-inkscape-font-specification:Arial;fill:#000000;fill-opacity:1;stroke:none;stroke-width:7.81476;stroke-linejoin:round;stroke-dasharray:none;stroke-opacity:1"
       x="82.53878"
       y="153.28003"
       id="text1171"><tspan
         sodipodi:role="line"
         id="tspan1169"
         style="font-style:normal;font-variant:normal;font-weight:normal;font-stretch:normal;font-size:79.3981px;font-family:Arial;-inkscape-font-specification:Arial;fill:#000000;fill-opacity:1;stroke:none;stroke-width:7.81477"
         x="82.53878"
         y="153.28003">$</tspan></text>
    <g
       id="g2030"
       transform="rotate(-135,148.61589,75.10663)">
      <rect
         style="fill:#000000;fill-opacity:1;stroke:none;stroke-width:6.05075;stroke-linejoin:round;stroke-dasharray:none;stroke-opacity:1"
         id="rect2016"
         width="7.0186567"
         height="45.442188"
         x="140.31009"
         y="44.51025"
         ry="5.1392951" />
      <rect
         style="fill:#000000;fill-opacity:1;stroke:none;stroke-width:4.99999;stroke-linejoin:round;stroke-dasharray:none;stroke-opacity:1"
         id="rect2018"
         width="7.0186567"
         height="31.029852"
         x="64.404617"
         y="131.96358"
         ry="3.5093284"
         transform="rotate(-45)" />
      <rect
         style="fill:#000000;fill-opacity:1;stroke:none;stroke-width:4.99999;stroke-linejoin:round;stroke-dasharray:none;stroke-opacity:1"
         id="rect2020"
         width="7.0186567"
         height="31.029852"
         x="131.96358"
         y="-71.423271"
         ry="3.5093284"
         transform="rotate(45)" />
    </g>
  </g>
</svg>
