<?xml version="1.0" encoding="UTF-8" standalone="no"?>
<!-- Created with Inkscape (http://www.inkscape.org/) -->

<svg
   width="129.59703mm"
   height="129.59702mm"
   viewBox="0 0 129.59703 129.59702"
   version="1.1"
   id="svg5"
   xmlns="http://www.w3.org/2000/svg"
   xmlns:svg="http://www.w3.org/2000/svg">
  <defs
     id="defs2" />
  <g
     id="layer1"
     transform="translate(-40.111938,-93.675369)">
    <g
       id="g3415">
      <g
         id="rect958">
        <path
           style="color:#000000;fill:#02ff70;stroke-width:4;stroke-linecap:square;-inkscape-stroke:none"
           d="m 52.455222,95.675369 h 42.111944 c 5.730184,0 10.343284,4.613101 10.343284,10.343281 v 42.11195 c 0,5.73018 -4.6131,10.34328 -10.343284,10.34328 H 52.455222 c -5.730179,0 -10.343284,-4.6131 -10.343284,-10.34328 v -42.11195 c 0,-5.73018 4.613105,-10.343281 10.343284,-10.343281 z"
           id="path3384" />
        <path
           style="color:#000000;fill:#ffffff;stroke-linecap:square;-inkscape-stroke:none"
           d="m 52.455078,93.675781 c -6.803578,0 -12.34375,5.540172 -12.34375,12.343749 v 42.11133 c 0,6.80358 5.540172,12.34375 12.34375,12.34375 h 42.111328 c 6.803574,0 12.343754,-5.54017 12.343754,-12.34375 v -42.11133 c 0,-6.803577 -5.54018,-12.343749 -12.343754,-12.343749 z m 0,4 h 42.111328 c 4.656769,0 8.343754,3.686979 8.343754,8.343749 v 42.11133 c 0,4.65677 -3.686985,8.34375 -8.343754,8.34375 H 52.455078 c -4.656769,0 -8.34375,-3.68698 -8.34375,-8.34375 v -42.11133 c 0,-4.65677 3.686981,-8.343749 8.34375,-8.343749 z"
           id="path3386" />
      </g>
      <rect
         style="fill:#02ff70;fill-opacity:1;stroke:#ffffff;stroke-width:4;stroke-linecap:square;stroke-dasharray:none"
         id="rect971"
         width="62.798512"
         height="62.798512"
         x="104.91045"
         y="95.675369"
         ry="10.343284" />
      <g
         id="rect973">
        <path
           style="color:#000000;fill:#02ff70;stroke-width:4;stroke-linecap:square;-inkscape-stroke:none"
           d="m 115.25374,158.47388 h 42.11194 c 5.73018,0 10.34329,4.6131 10.34329,10.34328 v 42.11194 c 0,5.73018 -4.61311,10.34329 -10.34329,10.34329 h -42.11194 c -5.73018,0 -10.34329,-4.61311 -10.34329,-10.34329 v -42.11194 c 0,-5.73018 4.61311,-10.34328 10.34329,-10.34328 z"
           id="path3392" />
        <path
           style="color:#000000;fill:#ffffff;stroke-linecap:square;-inkscape-stroke:none"
           d="m 115.25391,156.47461 c -6.80358,0 -12.34375,5.53822 -12.34375,12.3418 v 42.11328 c 0,6.80358 5.54017,12.34179 12.34375,12.34179 h 42.11132 c 6.80358,0 12.34375,-5.53821 12.34375,-12.34179 v -42.11328 c 0,-6.80358 -5.54017,-12.3418 -12.34375,-12.3418 z m 0,4 h 42.11132 c 4.65677,0 8.34375,3.68503 8.34375,8.3418 v 42.11328 c 0,4.65677 -3.68698,8.34179 -8.34375,8.34179 h -42.11132 c -4.65677,0 -8.34375,-3.68502 -8.34375,-8.34179 v -42.11328 c 0,-4.65677 3.68698,-8.3418 8.34375,-8.3418 z"
           id="path3394" />
      </g>
      <g
         id="rect975">
        <path
           style="color:#000000;fill:#02ff70;stroke-width:4;stroke-linecap:square;-inkscape-stroke:none"
           d="m 52.455222,158.47388 h 42.111944 c 5.730184,0 10.343284,4.6131 10.343284,10.34328 v 42.11194 c 0,5.73018 -4.6131,10.34329 -10.343284,10.34329 H 52.455222 c -5.730179,0 -10.343284,-4.61311 -10.343284,-10.34329 v -42.11194 c 0,-5.73018 4.613105,-10.34328 10.343284,-10.34328 z"
           id="path3398" />
        <path
           style="color:#000000;fill:#ffffff;stroke-linecap:square;-inkscape-stroke:none"
           d="m 52.455078,156.47461 c -6.803578,0 -12.34375,5.53822 -12.34375,12.3418 v 42.11328 c 0,6.80358 5.540172,12.34179 12.34375,12.34179 h 42.111328 c 6.803574,0 12.343754,-5.53821 12.343754,-12.34179 v -42.11328 c 0,-6.80358 -5.54018,-12.3418 -12.343754,-12.3418 z m 0,4 h 42.111328 c 4.656769,0 8.343754,3.68503 8.343754,8.3418 v 42.11328 c 0,4.65677 -3.686985,8.34179 -8.343754,8.34179 H 52.455078 c -4.656769,0 -8.34375,-3.68502 -8.34375,-8.34179 v -42.11328 c 0,-4.65677 3.686981,-8.3418 8.34375,-8.3418 z"
           id="path3400" />
      </g>
      <ellipse
         style="fill:none;fill-opacity:0.476562;stroke:#ffffff;stroke-width:4;stroke-linecap:square;stroke-dasharray:none"
         id="path1029"
         cx="104.91045"
         cy="158.47388"
         rx="22.902985"
         ry="23.82649" />
      <path
         style="color:#000000;fill:#ffffff;fill-opacity:1;stroke-linecap:square;-inkscape-stroke:none"
         d="m 104.91016,119.73438 c -20.648953,0 -37.353519,17.40933 -37.353519,38.74023 0,21.3309 16.704566,38.73828 37.353519,38.73828 20.64895,0 37.35546,-17.40738 37.35546,-38.73828 0,-21.3309 -16.70651,-38.74023 -37.35546,-38.74023 z m 0,4 c 18.40249,0 33.35546,15.48958 33.35546,34.74023 0,19.25065 -14.95297,34.73828 -33.35546,34.73828 -18.402493,0 -33.353519,-15.48763 -33.353519,-34.73828 0,-19.25065 14.951026,-34.74023 33.353519,-34.74023 z"
         id="ellipse1154" />
      <path
         style="color:#000000;fill:#ffffff;fill-opacity:1;stroke-width:1;stroke-linecap:square;-inkscape-stroke:none"
         d="m 104.90967,100.36475 c -30.973424,0 -56.030273,26.114 -56.030273,58.11035 0,31.99635 25.056849,58.10742 56.030283,58.10742 30.97342,0 56.03318,-26.11107 56.03318,-58.10742 0,-31.99635 -25.05976,-58.11035 -56.03319,-58.11035 z m 0,6 c 27.60374,0 50.03319,23.23437 50.03319,52.11035 0,28.87597 -22.42945,52.10742 -50.03318,52.10742 -27.603744,0 -50.030283,-23.23145 -50.030283,-52.10742 0,-28.87598 22.426539,-52.11035 50.030273,-52.11035 z"
         id="path1910" />
    </g>
  </g>
</svg>
